<?xml version="1.0" encoding="UTF-8" standalone="no"?>
<!-- Generator: Adobe Illustrator 16.0.0, SVG Export Plug-In . SVG Version: 6.00 Build 0)  -->

<svg
   xmlns:dc="http://purl.org/dc/elements/1.1/"
   xmlns:cc="http://creativecommons.org/ns#"
   xmlns:rdf="http://www.w3.org/1999/02/22-rdf-syntax-ns#"
   xmlns:svg="http://www.w3.org/2000/svg"
   xmlns="http://www.w3.org/2000/svg"
   xmlns:sodipodi="http://sodipodi.sourceforge.net/DTD/sodipodi-0.dtd"
   xmlns:inkscape="http://www.inkscape.org/namespaces/inkscape"
   version="1.1"
   id="Capa_1"
   x="0px"
   y="0px"
   width="97.75px"
   height="97.75px"
   viewBox="0 0 97.75 97.75"
   style="enable-background:new 0 0 97.75 97.75;"
   xml:space="preserve"
   sodipodi:docname="reddit-logo.svg"
   inkscape:version="0.92.2 5c3e80d, 2017-08-06"><metadata
     id="metadata3729"><rdf:RDF><cc:Work
         rdf:about=""><dc:format>image/svg+xml</dc:format><dc:type
           rdf:resource="http://purl.org/dc/dcmitype/StillImage" /><dc:title /></cc:Work></rdf:RDF></metadata><defs
     id="defs3727" /><sodipodi:namedview
     pagecolor="#ffffff"
     bordercolor="#666666"
     borderopacity="1"
     objecttolerance="10"
     gridtolerance="10"
     guidetolerance="10"
     inkscape:pageopacity="0"
     inkscape:pageshadow="2"
     inkscape:window-width="1366"
     inkscape:window-height="730"
     id="namedview3725"
     showgrid="false"
     inkscape:snap-bbox="true"
     inkscape:bbox-nodes="true"
     inkscape:bbox-paths="true"
     inkscape:snap-bbox-edge-midpoints="true"
     inkscape:snap-bbox-midpoints="true"
     inkscape:object-paths="true"
     inkscape:snap-intersection-paths="true"
     inkscape:snap-smooth-nodes="true"
     inkscape:snap-midpoints="true"
     inkscape:snap-object-midpoints="false"
     inkscape:snap-center="false"
     inkscape:zoom="5.5140665"
     inkscape:cx="15.052412"
     inkscape:cy="48.875"
     inkscape:window-x="0"
     inkscape:window-y="38"
     inkscape:window-maximized="0"
     inkscape:current-layer="Capa_1" /><path
     style="fill:#dd77dd;fill-opacity:1"
     d="M 72.748047 19.630859 C 70.069047 19.630859 67.787234 21.306156 66.865234 23.660156 L 54.261719 20.693359 C 53.712719 20.561359 53.150516 20.880828 52.978516 21.423828 L 48.164062 36.652344 C 39.894062 36.752344 32.402484 38.990078 26.896484 42.580078 C 25.472484 41.267078 23.616969 40.492188 21.667969 40.492188 C 17.402969 40.492188 13.933594 43.960516 13.933594 48.228516 C 13.933594 50.991516 15.417625 53.513625 17.765625 54.890625 C 17.617625 55.706625 17.519531 56.532953 17.519531 57.376953 C 17.519531 68.815953 31.519469 78.121094 48.730469 78.121094 C 65.942469 78.121094 79.943359 68.815953 79.943359 57.376953 C 79.943359 56.581953 79.859516 55.803203 79.728516 55.033203 C 82.233516 53.697203 83.817312 51.122516 83.820312 48.228516 C 83.820312 43.961516 80.348031 40.490234 76.082031 40.490234 C 74.059031 40.490234 72.185953 41.304453 70.751953 42.689453 C 65.476953 39.197453 58.333781 36.972453 50.425781 36.689453 L 54.744141 23.03125 L 66.4375 25.785156 C 66.4355 25.844156 66.421875 25.896078 66.421875 25.955078 C 66.421875 29.443078 69.258047 32.283203 72.748047 32.283203 C 76.235047 32.283203 79.074219 29.443078 79.074219 25.955078 C 79.074219 22.467078 76.235047 19.630859 72.748047 19.630859 z M 72.748047 21.794922 C 75.041047 21.794922 76.90625 23.660078 76.90625 25.955078 C 76.90625 28.250078 75.041047 30.117186 72.748047 30.117188 C 70.453047 30.117188 68.583984 28.250078 68.583984 25.955078 C 68.583984 23.660078 70.453047 21.794922 72.748047 21.794922 z M 21.666016 42.65625 C 22.918016 42.65625 24.120656 43.097281 25.097656 43.863281 C 21.860656 46.359281 19.511516 49.369594 18.353516 52.683594 C 16.958516 51.650594 16.099609 50.008516 16.099609 48.228516 C 16.099609 45.156516 18.596016 42.65625 21.666016 42.65625 z M 76.080078 42.65625 C 79.154078 42.65625 81.650391 45.156516 81.650391 48.228516 C 81.650391 50.125516 80.700922 51.828656 79.169922 52.847656 C 78.048922 49.515656 75.726766 46.48475 72.509766 43.96875 C 73.505766 43.13475 74.752078 42.65625 76.080078 42.65625 z M 38.269531 48.933594 C 40.808531 48.933594 42.873047 51.000065 42.873047 53.539062 C 42.873047 56.078063 40.809531 58.142578 38.269531 58.142578 C 35.729531 58.142578 33.664062 56.078062 33.664062 53.539062 C 33.664062 51.000062 35.730531 48.933594 38.269531 48.933594 z M 59.498047 48.933594 C 62.037047 48.933594 64.101565 51.000065 64.101562 53.539062 C 64.101562 56.078063 62.037047 58.142578 59.498047 58.142578 C 56.961047 58.142578 54.894531 56.080062 54.894531 53.539062 C 54.894531 50.998064 56.959047 48.933594 59.498047 48.933594 z M 38.466797 65.34375 C 38.744047 65.34375 39.022375 65.449156 39.234375 65.660156 C 41.127375 67.555156 44.266938 68.474609 48.835938 68.474609 C 48.849938 68.474609 48.861 68.482422 48.875 68.482422 C 48.889 68.482422 48.900109 68.474609 48.912109 68.474609 C 53.482109 68.474609 56.622625 67.554156 58.515625 65.660156 C 58.939625 65.238156 59.624828 65.238156 60.048828 65.660156 C 60.470828 66.084156 60.470875 66.770406 60.046875 67.191406 C 57.726875 69.513406 54.084109 70.640625 48.912109 70.640625 C 48.900109 70.640625 48.889 70.630859 48.875 70.630859 C 48.861 70.630859 48.849937 70.640625 48.835938 70.640625 C 43.663938 70.640625 40.022172 69.513406 37.701172 67.191406 C 37.279172 66.769406 37.279172 66.084156 37.701172 65.660156 C 37.913172 65.449156 38.189547 65.34375 38.466797 65.34375 z "
     id="path3762" /><g
     id="g3694" /><g
     id="g3696" /><g
     id="g3698" /><g
     id="g3700" /><g
     id="g3702" /><g
     id="g3704" /><g
     id="g3706" /><g
     id="g3708" /><g
     id="g3710" /><g
     id="g3712" /><g
     id="g3714" /><g
     id="g3716" /><g
     id="g3718" /><g
     id="g3720" /><g
     id="g3722" /></svg>